<?xml version="1.0" encoding="UTF-8"?>
<svg id="Layer_1" xmlns="http://www.w3.org/2000/svg" version="1.1" viewBox="0 0 30 30">
  <!-- Generator: Adobe Illustrator 30.3.0, SVG Export Plug-In . SVG Version: 2.1.3 Build 182)  -->
  <path d="M29.25,0H.75c-.41,0-.75.34-.75.75v28.5c0,.41.34.75.75.75h28.5c.41,0,.75-.34.75-.75V.75c0-.41-.34-.75-.75-.75ZM6.6,6.78h11.52v2.52H6.6v-2.52ZM23.4,13.74v2.52h-11.52v-2.52h11.52ZM8.04,13.2c1.03,0,1.8.77,1.8,1.8s-.77,1.8-1.8,1.8-1.8-.77-1.8-1.8.77-1.8,1.8-1.8ZM18.12,23.22H6.6v-2.52h11.52v2.52ZM21.96,23.76c-1.03,0-1.8-.77-1.8-1.8s.77-1.8,1.8-1.8,1.8.77,1.8,1.8-.77,1.8-1.8,1.8ZM21.96,9.84c-1.03,0-1.8-.77-1.8-1.8s.77-1.8,1.8-1.8,1.8.77,1.8,1.8-.77,1.8-1.8,1.8Z"/>
</svg>