<?xml version="1.0" encoding="UTF-8"?>
<svg id="Layer_1" xmlns="http://www.w3.org/2000/svg" version="1.1" viewBox="0 0 1060 228.6">
  <!-- Generator: Adobe Illustrator 30.0.0, SVG Export Plug-In . SVG Version: 2.1.1 Build 123)  -->
  <defs>
    <style>
      .st0 {
        fill: #fff;
      }
    </style>
  </defs>
  <path class="st0" d="M962.7,124.3v2.4h41.2v-2.4c-8-.5-13.7-2.7-13.7-14.5v-27.4c2.7-20.5,16.8-31.5,30.6-25.8h1l1.9-14.9c-16.6-3.4-29.4,11.5-33.5,26.9v-26.5h-27.6v2.4c8,.5,13.7,2.7,13.7,14.5v50.8c0,11.8-5.6,14-13.7,14.5M907.4,76.7c1.2-15.9,8.7-31,21.1-31s19,13.7,19.7,31h-40.7ZM930.3,127.9c16.1,0,27.9-10.3,32.5-22.8l-1.9-.5c-6.7,9.2-16.1,13.9-25.8,13.9-16.3,0-27.7-13.5-27.9-37.1h55.3c.2-24-12.8-40.4-33.4-40.4s-36.5,17.1-36.5,43.3,17.1,43.6,37.7,43.6M871.5,127.9c10.1,0,16.4-5.8,20.9-14.4l-1.7-.3c-5,4.6-9.1,5.8-12.8,5.8-8.4,0-11.8-6-11.8-15.7v-55.8h24v-5.5h-24v-22.1h-2.6c-5.1,14.2-14.2,22.4-24.1,24.8v2.7h12.5v57.7c0,13.5,6.8,22.8,19.7,22.8M816,127.9c10.1,0,16.4-5.8,20.9-14.4l-1.7-.3c-5,4.6-9.1,5.8-12.8,5.8-8.4,0-11.8-6-11.8-15.7v-55.8h24v-5.5h-24v-22.1h-2.6c-5.1,14.2-14.2,22.4-24.1,24.8v2.7h12.5v57.7c0,13.5,6.8,22.8,19.7,22.8M730.9,103.2c0-14.7,13.7-22.9,35.4-19.5v26.2c-4.6,6.5-10.8,10.8-18.7,10.8-12.3,0-16.8-9.1-16.8-17.5M741.4,128c11.6,0,19.9-6,25-12.7v1.7c0,5.8,3.6,10.8,9.9,10.8s9.1-3.6,11.3-7l-1-1c-1.2.7-2.6.9-3.3.9-2.7,0-3.1-3.6-3.1-7.2v-46.9c0-16.6-13.5-25.7-28.6-25.5-15.7,0-28.2,9.9-33.4,22.9l2.2.7c7.4-11.1,18.1-15.1,26.7-15.1s19.2,5.1,19.2,18.7v10.8c-28.4-4.4-49.6,6.8-49.6,26.2s9.4,22.8,24.6,22.8M642.3,126.7h2.7l41.9-109v91.6c0,12.2-6.3,14.4-14.5,15.1v2.4h43.6v-2.4c-8.4-.7-14.5-2.9-14.5-15.1V20.9c0-12.2,6.2-14.4,14.5-15.1v-2.4h-29.1l-38.3,100.3L607.9,3.4h-32.7v2.4c10.4.7,18.1,2.9,18.1,15.1v88.5c0,12.2-7.2,14.4-17.1,14.9v2.6h39.5v-2.6c-9.9-.5-17.3-2.7-17.3-14.9V18.3l43.8,108.3ZM551.2,127.9c10.1,0,16.4-5.8,20.9-14.4l-1.7-.3c-5,4.6-9.1,5.8-12.8,5.8-8.4,0-11.8-6-11.8-15.7v-55.8h24v-5.5h-24v-22.1h-2.6c-5.1,14.2-14.2,22.4-24.1,24.8v2.7h12.5v57.7c0,13.5,6.8,22.8,19.7,22.8M477.1,124.3v2.4h44v-2.4c-8.4-.7-14.9-2.9-14.9-15.1V20.9c0-12.2,6.5-14.4,14.9-15.1v-2.4h-44v2.4c8.6.7,14.9,2.9,14.9,15.1v88.3c0,12.2-6.3,14.4-14.9,15.1M420.8,76.7c1.2-15.9,8.7-31,21.1-31s19,13.7,19.7,31h-40.7ZM443.7,127.9c16.1,0,27.9-10.3,32.5-22.8l-1.9-.5c-6.7,9.2-16.1,13.9-25.8,13.9-16.3,0-27.7-13.5-27.9-37.1h55.3c.2-24-12.8-40.4-33.4-40.4s-36.5,17.1-36.5,43.3,17.1,43.6,37.7,43.6M321.5,5.6l.5,2.2c7.7-1,13.7,0,13.7,11.8v90c0,11.8-5.6,14-13.7,14.5v2.4h41.2v-2.4c-8-.5-13.7-2.7-13.7-14.5V0l-28.1,5.6ZM386.2,126.7h27.9v-2.4c-8.7-.7-14.5-3.3-21.1-12l-26.9-36.1,41.4-33.5v-.7h-37.3v2.7c5.8.7,15.7,1.4,15.7,5.8s-1.5,3.8-6.8,8l-26.7,21.7.2.3,33.5,46ZM262.5,103.2c0-14.7,13.7-22.9,35.4-19.5v26.2c-4.6,6.5-10.8,10.8-18.7,10.8-12.3,0-16.8-9.1-16.8-17.5M272.9,128c11.6,0,19.9-6,25-12.7v1.7c0,5.8,3.6,10.8,9.9,10.8s9.1-3.6,11.3-7l-1-1c-1.2.7-2.6.9-3.3.9-2.7,0-3.1-3.6-3.1-7.2v-46.9c0-16.6-13.5-25.7-28.6-25.5-15.7,0-28.2,9.9-33.4,22.9l2.2.7c7.4-11.1,18.1-15.1,26.7-15.1s19.2,5.1,19.2,18.7v10.8c-28.4-4.4-49.6,6.8-49.6,26.2s9.4,22.8,24.6,22.8M175.3,126.7h2.7l41.9-109v91.6c0,12.2-6.3,14.4-14.5,15.1v2.4h43.6v-2.4c-8.4-.7-14.5-2.9-14.5-15.1V20.9c0-12.2,6.2-14.4,14.5-15.1v-2.4h-29.1l-38.3,100.3L140.9,3.4h-32.7v2.4c10.4.7,18.1,2.9,18.1,15.1v88.5c0,12.2-7.2,14.4-17.1,14.9v2.6h39.5v-2.6c-9.9-.5-17.3-2.7-17.3-14.9V18.3l43.8,108.3ZM28.4,83l7-36.8h37.1l-7,36.8H28.4ZM57,126.7h5.5l7.5-39h27.9v-4.6h-26.9l7-36.8h24.5v-4.8h-23.4l7.4-38h-5.5l-7.4,38h-37.1L43.8,3.4h-5.5l-7.4,38H4.6v4.8h25.3l-7,36.8H0v4.6h21.9l-7.5,39h5.5l7.5-39h37.1l-7.5,39Z"/>
  <path class="st0" d="M657.8,210.7s0,0,0,0c0,0,0,0,0,0"/>
  <path class="st0" d="M807.7,191.8s0,0,0,0c0,0,0,0,0,0"/>
  <path class="st0" d="M682.1,157.2s0,0,0,0c0,.2.2,0,0,0"/>
  <path class="st0" d="M837.7,175.6s0,0,0,0c-.1-.1-.1,0,0,0"/>
  <path class="st0" d="M1045.3,135.9s0,0,0,0c0,0,0,0,0,0"/>
  <path class="st0" d="M706.7,160.1s0,0-.1,0c0,.1.1.1.1,0"/>
  <path class="st0" d="M1021.5,164.3c.4-.3,1.7-.9,2.1-.8,1.4.3-.6,1.8-2.1.8M1014.4,163.1c-1.1-.7.1-1,1.4-1.2.2,0,1.2,1-1.4,1.2M992.9,175.4c-.9.2-.9-.7-.9-1.4,0,0,.2,0,.6-.3,1.1-.6,1.7,1.4.4,1.6M972.9,169.6c-.9-1.1-.6-2,.6-.4-.1.7-.4.7-.6.4M972.3,175.3c.1-.3.7-.6,1,.3-.3.8-1.3.4-1-.3M958.4,175.1c-1-.6,1-2.5,1.9-1.7.7.6-.7,1.1-1.9,1.7M955.4,176.1c-.3,0,0-.6.3-1,0-.5-.1-1,.4-1.3,1.1-.6.3,2.4-.7,2.3M943.7,179.3c-.8,1.6-2.3-.1-1.2-.8.9-.5,1.4-.3,1.2.8M941.3,176.7c.2,1.2.6,1.8-3.1,0-.4-.2-1.3-.3-1-1,0-.3,3.3.1,2.1-1.5-.8-1.1,1.7.1,2.6-.6.2-.2.4-.2.5,0,.3,1.1-1.7.3-1.2,3M936,173.7c-1.8,0-1.4-2.7-.4-2.4.7.2,1.1,1.2,2,.6.4-.3.2,1.8-1.6,1.8M935.7,178.4c0,.7,0,1.4-.7,1.1-1.3-.6-2.4-.2-2.6-1.2-.2-1.6,1.1-6.8,2.1-1.8,0,.3.3.6.7.6,1.2,0,.7.7.5,1.3M905.8,177.6c-.1.2-3.3,3.4-3.5,2.3-.2-1.6.2-1.1.4-1.9.5-1.9-1.6-.9.3-4,.5-.8,1.1,1.3,1.1,1.5.2,1.8,2.3,1.1,1.7,2M888.9,176.8c-1,.2-.2-3,.8-1.2,0,.5-.4,1.1-.8,1.2M872.3,176.3c-.2-.1.5-.8,1-.5,2,1.3,0,1.2-1,.5M865.4,179c-.5,0-3.2-2.8-2.2-3.2,1.2.4,1.2,1.4,2.9,2.1.6.3-.4,1.1-.7,1.1M861.6,182.2c.5-.5.3-1,.2-1.5-.4-1.9,2.2-1.2,2.4-.3-.7,2.5-4.2,3.6-2.5,1.9M855.8,180.8c-2-1,1.2-4.1,1-.8-.2.4-.4,1.1-1,.8M850.7,182.7c-.6,0-1.4-.6-1.4-1.4.4-1.6,2.4,1.3,1.4,1.4M833.3,185.1c-.7-.8-1.6-1.2-.7-2.8,1.5-2.6-3.7-1.1-1.5-3.3.2-.2,4.6.8,3.1,1.9-.2.2-1.1.4-.7,1.6.3.7.7,0,1.1,0,1.3,0,.3.4-1.3,2.5M826.9,183c1.5-.2,1.2-.1,1.5,0-.4,2.1-2.7,0-1.5,0M812.7,183.6c-.8-.2-.3-1.2.3-.9.3.1.6.9-.3.9M804.2,184.5c.2.3,0,0,.7,1.5-.8.6-1.4-.6-.7-1.5M801.5,182.7c-.9,1.3-3.2.5-2.5-.9.7-1.3,1.2-1.1,1.4-.8.7,1.5,1.8,1.2,1.1,1.7M787.1,190.5c-.5-.3-.5-1,.1-1.2,2.6-.8.4-3,2.8-2.6,1.1.2-1.2,3.5-2.9,3.8M783.4,186.1c-1.3,2.4-3.8-1-.7-1.1,1,.1,1.1.4.7,1.1M765.8,186.9c-.2-.2-.3-.3-.2-.6.6-1.6,3.2-1.1.2.6M763.2,188c-1.8,1.4-1.9.4-1.8.2,1-1-.4-1.8.3-2.3.9-.6,2.4,1.3,1.4,2M752.4,193.1c2.5-3,2.2-1.5,2-3.3,0-.9,2.3-2,2.4,2.1-.8,2-6.1,3.2-4.5,1.2M751.6,190.9c-.2,2,0,2.2-2.3,1.1-.6-.3.6-.2,2.3-1.1-.6-3.3,1-3.2,1.7-2.2-1.3.1-.4,2-1.7,2.2M734.6,191.4c.7-.4,1.2-.3,1.7.2.7.8-1.2,1.1-1.7-.2M733.1,192.6c.4.1.3.1.5,2.1-.6,1.1-1.9-2.5-.5-2.1M714,189.1c-2.6-1.3-.2-1.9.5-1,.5.6-.2.8-.5,1M705.2,190.4c-1.2-.4-.5-1.8.2-1.4.5.2.7,1-.2,1.4M700.8,198.1c-.6,0-1.7-.6-1-1.7.7,0,1.7,1.7,1,1.7M697.5,198.4c.5-.7,1.2-.8,1.2.2-.3,1.4-1.4,0-1.2-.2M692.4,192.3c-.9-1,.3-1-.1-1.9-.5-1.1,3.7.4.1,1.9M679.9,203.8c-.3,0-1.9-.3-1-1,1.3-1,3.4,1.1,1,1M676.3,200c-2.1-1-1.8-1.9-.7-1.3,1.4-.9,2.1,2,.7,1.3M659.1,209c-.3.6-2.3-1-1.4-1.3.8.3,1.9.5,1.4,1.3M655.2,205.6c-.2.2-1.4-.5-.8-1.2.9-1,3.1-.9.8,1.2M653,201.4c-.4-1,.9-2.3,2-2.3,2.6.1-.5,2.7-2,2.3M651.4,198.2c-1.5,0-1.7,1-2.5,1.7-.5-1.7.9-4.7,2.5-1.7.3.3.6.6,1,.9.3.2-1.1,2.4-1-.9M645.7,202.8c-.5,3.6-2.6.9,0,0-.3-3.8,3.3-.9,0,0M639.1,209.4c.5-1.1-3.1-5.2,1.8-1.5,1.1.8-2.1,4.8-1.8,1.5M636.4,209.2c-.3-.1-.7-.7.3-1,.9.2.5,1.4-.3,1M628.4,211.2c-1.8.3-2.7,1-3.4-.8-1.2.2-2.9-1.2-2.6-1.5.6-.7,2.5.6,2.6,1.5,2.5,0,2.6-1.2,3.5-.2.4.5,3.3.5,0,1M617.8,211.2c-.2,0-.9-.6.7-2.1.4-.3,2-.1-.7,2.1M614.2,209.8c.4-.6,1.8.2,1.7,1.1-.5,1.5-2.3-.2-1.7-1.1M611.1,208.1c-.9,1.4-3.4-2.6,0-.6,0,0,.1.4,0,.6M610.9,211.8c-1-.2-3-.5-2.2-1.5.5-.7,3.1.7,2.2,1.5M599.9,214.6c.4,0,.7.1.8.5.3,1.8-1.7.7-.8-.5M597,214.7c-.2-.5,0-.9,1.1-.5,0,.9-.9.8-1.1.5M588.1,222.4c-.3,0-.8-.2-.9-.4-.4-1.6-1.8-.5-2.3-1.9-.6,0-1.3.2-1.8-.3-.9-.8-.7-1.3.2-1.7.9-.3.9.2,1.7,2,2.2-.3,9.3,2.5,3.2,2.2M587.7,214.9c.4,0,1.8.8.4,1.9-.7-1.7-.8-1.8-.4-1.9M967.2,146.5c-.4-.1-1.1-.2-.7-.7,1.3-1.7,3.7.8.7.7M964.9,160.9c0,.5,0,1.1.3,1.5.4.5-.7.5-.7.3-1.5-5.1,5.5-.5.4-1.8M933.3,161.7c-.6-.1-.8-1.6.3-1.7,1.4,0,3.5,2.4-.3,1.7M914.5,163.2c-.6,1-1.9-1.7-1.1-2.1,1.4,1.6,1.5,1.5,1.1,2.1M903.8,148.8c-.6-.1-2-.3-1.4-1.1,1.4-1.7,3.8.6,1.4,1.1M891.8,145.3c.5-1.2,1.6-1,1.5-.2-.1,1-1.6.4-1.5.2M854.4,161.9c0,.3-2.3-.4-.8-1,.9.4.9.3.8,1M848.9,151.6c.3,0,.3.3.3.5-1.5,1.8-5.5,1.3-.3-.5M843.5,152.3c0,.8,0,.9-.5.7-4.8-2.3-2.8-3.2-2.4-3,.7.3,1.2,1.1,2.1,1.1,1.2,0,.9.6.8,1.2M836,162.1c-.3-.9-.2-.8,1.1-.9,2.4.4-.3,3.2-1.1.9M835.2,147.5c.1-.3.2-.9.8-.2,1.2,1.5-.5,2.2-.8.2M833.5,148.3c-1.1.3-1.2,1.6-2,2.2-.5.4-1.4-1-.3-2.2,2.1-2.1,2.6,0,2.3,0M828.3,161.9c.3,1.5,1.5,0,2.1,1.3-1.1,2.3-3.7-.4-2.1-1.3M826,149.9c-.1.4-.5.5-.8.4-2.6-.9,1.5-1.7.8-.4M811.9,153.4c-.5.7-1.4-.7-4-1.8,0,0,0-.5.1-.6.6-.3,1.6-.2,1.2-.2,4.1-.1,1.2,1.3,2.2,2,.2.1.7,0,.4.5M804,151c-.9-.3.2-1.5,1-1.6.5,0,.1,1.1-1,1.6M798,154.6c.2-.7,1.2.1,1,.8-.9.9-1.2,0-1-.8M795,157.5c-.3-.3-3.1.2-3.6-.8,1.4-.2,5.5-.2,6.2.3-.4.4-1.9,1.2-2.7.6M788.2,158.4c-1.5.5-6.2-.2-7.7-.4-.6,0,1.1-2.2,2.6-1.4,3.8,1.8,4.4.5,5.1,1.9,1.6-.7,1.1-.5,1.8-.3-.7,1.5-1.2,1.1-1.8.3M778.8,153.2c-1.3-1.3,1.1-2.3,1.2-1.5.1.7-.5,1.6-1.2,1.5M770.9,163.8c-1.6-.8.2-2.6.5-2.1.5.7.4,2.1-.5,2.1M761.7,160.1c0-.2,1.5-1,1.8-.3,0,.9-1.8.7-1.8.3M761.1,157.5c-.6,0-1.9-.7-1.2-1.2.9-.1,2,1.1,1.2,1.2M758.2,154.7c-1.7,1,.3,2.1-2.9,2-.3,1.4,1.2,2.4.7,3.8,0,.3.8.7,0,.9-.9.2-.5-1.5-1.3-1-1,.6-1.4.4-5.6.2.9,2.3-1.1,1.5-3.4.6-1.3,2.2-4.8.9-3.6.7,1.2-.2,2.2-1.2,3.6-.7.2-1.1,6.9-.8,7.6-3.9-2.1-.1-2.1,0-2.3-.3-.1-.1,2.5-1.9,4.4-1.8,1.1,0,1.1,0,.6-1.3-.7-1.5,3.5,0,2.2.7M741,154.1c-3.1,0,.3,2.3-.2,2.7-.2.2-2.8,3.4-3.2,2.2-.2-.5-.6-1-1.6-.9-1.2.1-1.1-1.4-2-1.6,0-.6.5-1,.9-1.4,1.8-2-1.7-1.2-3.4-1.3.3,1.4-2.4,3.2-3.4,2.1-1.1-1.1-2,.2-1.9-1.2.1-1-.8-1.7,0-1.6.7.1.3,1.1,1.1,1,.8-.1,1-1.3,2.4-.8-.1-1,.9-3.2,1.5-3.2.6,0,.4,1.4.9,1.5,3.2.3,6.8,3.8,6.8,2.4,0-.4-.6-1,0-1.2,3.4-.7,4.6,1.2,2.2,1.2M736.5,163.5c-.3,0-.5-1.1.4-1,.8.2.5,1.2-.4,1M734.3,165.4c-1-1.9-2.6-1-2-1.7.5-.6.5-1.2,0-1.8,1.5-.6,3,2.1,3.5,3.6-.9.4-1.4.1-1.5,0M729.4,166.5c0,.3-.7.2-1.1.2-.8,0-1.2.3-1.3,1.2-.2,2.7-5.2-2.7,2.5-3.1,3.3.8-.4,0,0,1.8M720.3,160.5c-.2-.2-3-.5-4.5,1.6-.7,1-.9-.8-1-1.8,0-.3-.2-.4-.4-.5,3,1.5,3.1-1,1.2-2.1,0,.1-.1.2-.3.3.1-.2.3-.5.4-1,.5-2.1,1.4,1.9,3.7,0,.8-.7.8-.7-.2-1.6-2.6-2.4,2.1-.3,3.6-.2.7,0,1,.6.7,1.2-.3.8.3,1.2.5,1.9.2.7,1,0,1.6-.5.1-.1-.7-.8-.8-.9,2.5-1.1,5,1.8,3.4,2.5-2.2,1-2.7.5-3.1,1.1-.4.6-4,2.3-4.8,0M717,162.6c-.2-.8,1.4-.7,1.6.3-.3.3-1,1.6-1.6-.3M713.8,159.3s0,0,.1.1c.1,0,.2.1.3.2-.2,0-.3-.2-.4-.3M714.7,158.4c-.3.2-.6.4-.8.6,0,0,0,0,0,0,.2-.4.5-.5.8-.5M714.8,154c3.4-2.5,1.9.9,1,1.2-1.3.4-1.3,2.7-1.5,0,0-.5,0-.9.5-1.2M719.7,149.6c.2,0,.4.1.6.2-1.4,3.5-4.1-.4-.6-.2M742.9,151c1.1-.2.9-1.5,1.8-1.9,1.2-.5-.2,1.8,1.2,2.5,0-.5.1-1.1.2-1.6,0-.4,1-.2.9,0-.5,1.4,2.6.6,1.3,2.1-.4.5-1,.8-1.2,1.5,3.7-.2,1.4,2.5.4,1.5-.5-.5-.3-1-.4-1.5-1.4-.5.1-1.6-1.3-2.1,0,.7,0,1.3-.8,1.7-1.6.8-.8-1.4-2.2-1.9-.3-.1-.3-.4,0-.4M745.6,146.5c.2-.3.6-.4,1.1.5-.2.8-1.4,1.4-2.1,1-.8-.3.3-.3,1-1.6M749.9,148.5c.5,0,.7.3,1,.7,2.2,3.2-2.8,1.3-1-.7M757.7,150.1c.4.2.7.9-.2,1-.9-.2-.5-1.2.2-1M708.1,158.1c-1.7.3-1.3,1.9-1.3,2,2.9,1.7-1.9,3-3.3,2-1-.7-2,.8-2.9.2-1.8-1.3,2-1,2.3-3.6,1.1-.5-.6-1.7.7-2.2.9-.3.4-1.5,1-2,.9-.9,2.1-.3,1.2,1.5-1.2,2.8,3.1,0,4,1,.4.5-1,1.1-1.7,1.2M703.5,165.6c-.8,1.5-.3,2.2-.8,2.8-.4-.3-2.1-3.3,0-3.3.4-.1,1.1-.2.7.5M697.6,159.1c-1.8-1.4-2.6-1.6-2-2.2,2.4-2.1,1.8-2.2,2.7-2.9,3.5,1.8,5.2-.4,3.1,2-.3.3-1,.9-.8,1.4.9,1.7-1.8,2.6-3.1,1.7M696.9,164c.2.1.5.2.5.3.5,2.7-2.4.6-.5-.3M693.9,160.8c1.3-.4,1.9.9,2.5-.6.3-.6.8.4.7.6-2.7,5.8-1.5,1.7-3.1,0M693.8,166.5c-1.5-.7.8-3,1.5-1.3,0,.7-1,1.6-1.5,1.3M691.4,165.7c-1-.2-.5-1.3.1-1.1.4.1.7,1-.1,1.1M685.4,164.3c-.3-.9,1.8-.8,1.7-.4-.2.8-1.5,1.1-1.7.4M674.5,168.4c-1.2,0-2.7.5-3.6-.1,1-.8,1.1.1,3.5-.6.3,0,.2.7,0,.7M670.2,166.2c-.9,3.3-4.6.4-5.1,1.8-.6,1.4-.8,1.2-6.5.2-2.4-.4,1-3,3.2-2,1.6.7,2.3-.5,2.6-.2,1.6,1.2,3-.1,4.4-.4,1.4-.2.5-1.5,1.3-1.4.9.1.2,1.7.1,2.1M642.3,168.3c0,1.6-2.9-2-2.9-.2,0,2.6-1.9-2.4-7.2.4-.8.4-1.5.4-2.3,0-.7-.4-1.6.2-2.3-.4-.4-.3-.8.5-1.2,1-1.2-1-2.8.3-3.4-1.6,0-.2.5-.9,1.3-.6,2.4.4-.4-1.2,1.9-1.8.5-.1.6-.5.4-1-.1-.3-1.5-.4-.2-1,.5-.2,1.5-1,1.7-.9.2,0,2,1,.9,1.8-1.5,1.1,2.7,0,5.6,1.2,1.4.6.4-.7.7-1,.9-1.3.4-2.1,1.5-1.9.6.1,1.1.8,1.1,1.6,0,.9,1,1.1,0,2.1-.7.6-.1,1,.4,1,2,.2,1.9-1.7,4.4-1.3,1.5.2-.4,1.2-.4,2.5M638,175.6c.7-2,3.1,0,1.3.3-.2,0-1.3-.1-1.3-.3M638.8,178.7c-1.8-.4-1.2-1.3-.6-1.1,1.9.6,2.6.9.6,1.1M628.5,171.4c2.2-1.6,1.6-2.1,3.2-1.3,3.6,1.8-4.6,2.3-3.2,1.3M635.5,177.7c-.2.9-2.1,1.2-2.7,0-.7,0-5.4.6-5.6.7-2.2.5-3-2.1-3.2-2.1-.7-.2-.7.7-.9.8-.8.3-1.2,0-1.2-.5-.2-1.8.4-1.4,1.3-1.8,2.4-1,1.7,1.6,2.9.5,1.2-1,1.1,1,2.1.9,1.9-.1,2.4.1,2.7-1.6.3-1.7,2.4,1.6,1.9,3.3.4,0,1.1,0,1-.4-.3-1.5,2.1-1.1,1.7.4M620.8,172.5c-1.5,0,.8-2.8,1.5-1.9.8,1,1.2.6,4.1,1,.4,0,1.2.9,0,1.7-.5-.3-.3-1.5-2-1.3-1.2.2-3.3.5-3.7.5M618.6,177.2c-2.5,0-2.8-1-.3-1.3,2.9,0,2.7,1.3.3,1.3M612.4,170.3c0,.8,1.7.9.9,1.2-1.1.5-4.8-1.3-.9-1.2-.4-.9.4-1.4.7-2-3.3-.4,1.6-2.9,0,0,.6,0,1.1.8,1.6-.3.4-.9.8,1.5,2.2-.6.5-.7,1.6.4.9,1.9-.2.4-.7,0-.8,0-1.6,1,.4,1.8-4.5.9M613,177.1c-3.1-.4,1.7-2.9,1.8-.6,0,.8-1,.6-1.8.6M608.5,174.5c-.4-.7,3.6-1.4,3.6,0,0,.3-.2.3-.4.2-1.4-.7-2.5,1.1-3.2-.2M607.2,167.5c-.1-.2.5-1.3,1.1-.2-.2.9-.9.4-1.1.2M620.8,162.8c.3-.4.4,0,.6.4-1.2,1.7-1.3.5-.6-.4M631.3,163c.8-.6,3.1-.4.3.7-.2-.2-.6-.5-.3-.7M647.7,160.4c-1.3-.3-1-.6-.8-.6,2.6-.1,2,.6.8.6M668.7,156.6c-.6-.2-1.3-.4-1.9-.6-1.6-.5,3.1-2.2,1.9.6M670.6,155.4c.5-.8,1.8-.1,1.8.8-.3,1.4-2.7.6-1.8-.8M767.6,147.9c-.2.5-1.1.9-1.6.6-1.1-.7.8-1.5,1.6-.6M1052.9,164.7c-1.7-.7,3.9-9.1-.9-9.5-1.5-.1-4.1-2.3-3.5-2.5,1.3-.6,2.1-1.7,3.1-2.6.5-.5.5-.6-.5-1-2.2-.9,2.1-.9.9-2.6-2.5-3.6,1.9-3.4,0-5.2-.9-.8-4.6-3.5-.6-2,1.2.4,2.3-1.3,1.6-1.7-1.8-.8-3.7-4.3-6-2.2-.6.5-1.6.7-1.8.6,1,1.9.8,1.1,3.1.1.6-.2,1.7.6,1.1,1.4-2.4,3,.9,2.3-.3,3.6-2.3,2.4-6,2-6.5,1.8-3.4-1.2-5.6,1.9-7.3,1-1.6.9-3.7-.1-5.1,1.5,0,0-.3-.2-.4-.3-.8-1.1-.6,1.2-2.4.4-2.3-1.1-7-.2-7.3-.5-.6-.7-1.3-.7-2.1-.3-1,.4-2.3-.2-1.5-1.7.9-1.7.2-6.4-1.7-5.5-.2.1-.5.6-.3.8,1.4,1.4-1.2.1-1.2,4.3,1.3.7,1.9.9,1.5,1.2-1.2.8-1.5-.3-1.5-1.2-2-1-5.8.8-4.1,1.1,3.7.6.3,3.6-1.7,2.1-1-.8-1.9,1.2-3.5,0-1.2-.9-2.4-1.8-4-1.1-.4.1-.5-1-1.2-.7-.9.3-.6-6.7-7-3.6-.5.3,0,1.1.3.9.9-.5,4.8,0,3.9,1.4-.3.5,0,.7.2,1.1.6.8-.1,3.1-.9,2.1-2.9-3.8-1.1.1-2.3.8-.3.2-.7.1-.9-.2-.8-1.6-2.3-2-3.7-2.8-.6-.3-1.9,1.1-.7,1.7.5.2.3-.2,1.1.5-.9.3-2,.4-2.4-.4-.9-2.1-1.6,1.6-4,.2-.6-.4-3.5.6-4.1,1-1.1.7-.9,0-3.5-.1-5.1-.2-5.1,0-5.3-2.3-.2-1.6-.4-.6-.7,0-.4.7,0,.7-1.9-.2-2.1-1.1-.5,3-4.4,2.8-.2,0-.3.2-.5.3-.4.2,0,0,0,.3.1.5-.1.7-.3.6-1.6-1.4-6,2.5-5.1.9.7-1.4-1.2-1.6-2-3.5,0-.1-.8-.1-.7.3.3,1.6-5.2.7-3-.5,1.3-.7-1.1-1.6,1-3.4.5-.4,0-.7-.3-1-2-1.1,5.1-.9,4.3-3.8-.4-1.4-1.2-2.7-1.7-1.6-1.2,2.3-2.7.6-3.6,2.2-.5.9-.8-.2-2,0-1.1.2.1,1.2.2,1.5,0,.6-1.8.9-1.7,2.2.1,2.6-2.7,3-1.5,3.7,4,2.4,3.2,1.7,2.4,2-2.9,1.3-4.5-1.5-6.5-.3-.5.3-1.3,0-2,0-1.9,0-2.5-2.1-2.8-.9-.4,1.7-2.2.2-3.6,1.1-1.2.8-1.2-1.2-1.8-.6-1,.9-1.1.6-4-.8-1-.5-1.7,1.9-3.1.2-.8-.9-.4-1.7-1.4-.5-.8.8-2.1-1.2-2.6.6-.6,2.1-2.7.4-2.5,1.4.4,2.2-1.2-.5-3.2-.5-7.2.2-8.5,0-9.9-2.9-2.1-4.2-4.9-.4-2.6.2.5.1,1.4-.6,1.7.4.3.8-1,.8-1.6,1.6-1.4,2.1-1.7.7-6.4.3-.8,0-.8-.2-.2-1,.4-.5.8-1.3-.4-1.2-3.3.1-1.5-1.1-3.1-2.2-1.1-.8-1.9.3-1.8.9,0,.4.5.9.4,1.3,0,.6-.9,0-1,.4-.5,2.8-4,.5-4.7,2.6-.1.4-3.7-1.3-2.9-2,.4-.3.3-3.6,1.3-4.2.2-.1-.1-.8-.3-.8-3.2,1.2-2,1.3-2.5,2.3-1.1,2-4.9.2-5.8-1.4-.2-.3-.8,0-1,.5,2,1.1-2.9,3.8,0,0-.5,0-.8-.9-1.4-.1-2.3,3.6-.6,1.9,2.1,4,.6.4.5-.7.5-.9.7-2.9,5.3,5.7-3.5,1,0,2-3.5.1-2,0,3,0,2.3.3.1-1.8-1.7-1.7-1.3-.1-4.1-2.1-.7-.5-2.8,1-1.1,2.1,3.9,2.5,1.7,2.4,0,1.8-2.4-.8-1.2,1.4-3.2.9-1.8-.4-1.1-2.1-2.1-1.9-.8.2.5,1.4-.4,1.6-1.4.3-2.1-3.4-3-1.1-.2.4.2,1.1-.9.8-2.6-.7-3.6,2.2-5.1.7-1.8-1.8-1.7.4-3.1-1.3-.7-.9,0-3-1.1-2.1-3.8,3.1-2.9.9-4.3,1.3-2.9.8-2.4-.5-3.2.5-.1.1-.4.4-.4.4-.8-.7-1.9-.2-2.6-.6-2.2-1.3-3,1.9-3.8.2-.8-1.9-1.3,1.1-2.6.2-1.8-1.3-2,1.8-2.9.1-.5-.9-1.6-.7-2.4-1.1-.6-.3-1.1.2-1.6.4-2,1-2.2-1-3.6.7-2.5,2.9-4.6-.8-4.8,1.3-.5,4.7-1.1.5-1.1.2,0-1.1.8-1.3.1-2.2-.2-.3-1.2,1.6-2.1,0-.1-.2-1.6-1.1-1.8,0-.5,3-4.2-1-4.7,1.2-.2,1-.7,1.1-1.4.7-.8-.4-1.4,1.9-2,.3-.3-.7-.4-.6-.8,0-1,1.3.6,2.5-.7,2.6-1,0,0-.9-2.3-1.6-.4-.1-.4-1.8.4-1.3.8.6,1.6-.4.3-1-4.9-2.6-2.4-.9-4.8,1.9-.2.2-1.2.3-2.5.2,0-1.1.3-3-1-2.3-1,.6,0,1.8.6,2.2-2.5-.3-5.6-1.1-5.3-2.5.1-.7.4-.8-3.7.5-1.4.5,0,2.3,1.4,2.3,2.9-.1,3.3,3.9,1.6,3.9-2.6.1-2.3-1.3-5.7-3.4-1.4-.9.8-.8.5-1.4-.8-1.6-1.7-2.6-3.6-1.9-.9.3.7,1.7-1.7,1.7-.1.1.9.7-.2,1.3-.9.5-.1.7,2.3,2.5,1.2.9,0-2.1.5-2.3.6-.2,2.1,1.2,2.1,3.1,0,2.1-2.5-.3-4.1.2-2,.7,3.3.6,3.6,2.9,0,.7-.6.4-1,.5-2.1.6-2,.4-2-.4,0-1-.3-2.2-1-1.6-1,.9-2.4,1.3-2.9,2.7-.7,1.9-2.6.8-1.7.5,1.8-.7-1.5-1.5.9-2.9,2.3-1.3,2.9-1.7,2.4-2.3-.8-1-1.8.2-2.8,1-2.4,1.9-5.2-1.9-3.5-1.5.6.1,3.6-.4,5-1.4,2.6-1.8-2.1-2.3-3-4.2-.2-.5-1.9.1-2,1-.1,1.1-1.6,2.8-2.2,1.6-.4-.8-1,.1-1.2-.5-.2-.9,1.4-.5.9-1.4-.9-1.9-1.2-.8-2.6.8-.5.7-1.4,0-2.4-.6-4.7-2.6-2.1,4.2-2.3,4.2-5,.5-2.8-5.3-10.5-5-1.5,0,.4,1.9-1,1.9-3.5,0-3.3,2-5.1.8-1.5-.9-1.5-2.2-2.7-1.6-.5.3-.9.5-.8,1.3.1.5-.4.8-.7.5-.7-.5-1-1.4-2-.8-.8.4-1.9.7-2.2,1.5-1.2,3.3-7.4,3-5.2.2.2-.3-7-2.2-8.1-1.1-.5.6-1.5-.8-2.5,0-.5.3-3.1-.9-2.7.3.5,1.6.4,1,.9,3.2-.9.9,1.3,2.5-.1,2.3-2.1-.2-2.4-.7-2.7,0-.5,1.2-3.3.4-4-.9-1.2-.6-2.2-1-1.4-1.3,1.4-.5-.3-1.3.3-2.3.2-.5,2.3.1,1.8,1.7-.2.6-.4,1.2-.6,1.9,4.6-.7,4.7-5.5,2.2-5.5-.9,0-1.7.6-2.6,0-.9-.6-1.4,2-2.8,2.1-1,.1-1.2,1.7-2.5,1.4,0,0-.7,1.2-.8,1.3-.9-1.4,0-1.8.4-3-.2,0-.7,0-2.3,0-1.4-.1-1.2-2.3-2.3-.9-1,1.2,0-.1-6,1-1.5-1.2-3.3,1.8-5.3.1-.5-.4-1.8.8-2.3,1.2-1.3,1.2,2.7,2.8-.5,2.8,0,.9-.8,1.1-1.4,1.3,0,2.7,0,2.6,2,2.8,0-.2,0-.6.1-1.9.2-1.3,2.1,1.1,1.8-1-.2-1.6,3-1,3.8-.6,1,.4.2-1.3.4-1.4,1.1-.2.8,2.9,1.5,3.1.6.1.8-.7,1.3-.9,1-.4.6,1.3.7,3.2,0,.3.9,1.3-.9,1.7-1,.2-1.8,1.1-2.9.5,1.1,2.7-1,1.8-1.1.1-.9.2-1.4,1.5-2.7,1-.2,0-.8.2-.8.4-1.1,4.1.1,2.8.3,4,.2,1.7-1.9-.4-2.3.5-.5,1.4-2.1.5-2.9,1.4-.3.3-1.9-.8-2.1-1.3-1.5-4.1-1.6-3.8.3-4.6,1.4-.6-.3,1.6,1.1,2,.9.3.7,1,1.6.1,2.5-2.6,3.3-.9,3.3-3.7,0-1.6-1.1,0-1.9-.9-1.6-1.9.6,1.5-4.5,1.8-1.7.1-2.2,1.1-3.1,1-1.5-.3-3-1.9-3.6-1.5-.9.8-1.9,1.7,0,2.4.8.3-.4.8-.8.4-1.2-1.1-2.3-.3-3.4.9-.9.9-1.9,0-1.8-.9,0-.3.7-1.2,0-1.4-2.8-.4-3.1.2-3.6-1.1-.4-1-2.1,0-3.8-1.1-1.3-.9,1-2.9,2.5-2.8,2.1.1,3.5,3.7,5.6,1.7,1.7-1.5,3.4-.7,5.1-.3.7,1.8,3,.4,3.9.9.4.2,2.3,1,2.9.6.7-.5,0-1-.6-2-.6-1,.6-1,.8-1.5.5-1.5.4-1.5,1.7-.6.6.4.6.4,1.5-.6.3-.3.8,0,0-1.1-.4-.7.7-.5,1.9-.5-.3-1.1-1.6-.4-2-1.5-.3-.9-1.1-1-2-.5-2.2,1.4-2.6-.8-3.8-.4-.8.3-4.6,2.1-5.7,1.4-1.2-.7-3.6-.1-5,.3-2.4-1.1-4.2,2.1-6.8,2-2.5-.1-2.9,2.5-3.7,1.3-.8-1.1-1.9,0-2.8-.5,0,0-.3.2-.4.4-1,4.2-.2-1.2-2.1.3-2.2,1.9-2.6-.5-3.6.3-.6.5-1.5.5-2,1.3.8.2.6.9.7,1.4.4,1.2,1.2-.6,1.8-.1.4.3-.2,2-.4,2.6-.2.9.1.2,1.9,1.3,2.8,1.8,1.3.9,3.7.6,2.6-.3.9-2.1,2-2,1.8.1,1.2-2.9,2.6-1.6,2,1.7-1,2,4.6,2.5,3.5.3-.6,4.7-7.6,2.8-.3,0-.8-.4-1.5.4-.5.6,1,.9.5,1.3-4.4,3.1-1.5-.4-4.4,0l-3.4-2q-.7-.6-1.4,0c-1.8,1.5-1.2-4-.9-4.1,1.5-.1.8-1.7,1.5-2.3,1.2-1.2-2.8-.7-4-.1-2.3,1.1-4.2-.7-4.5.3-.8,2.5-2.4-.3-4.7,1.2-.8.5-1.5,1.4-2.7.6,0,0-.4.1-.6.3-1.2,1.3-2.4-.9-3,.4-1.1,2.2-2.6-.6-3.3,1-.2.6-1.6.4-1.9,1.2-.2.8-1.1-.2-1.3.5-.2.7-.7.9-1.3.6-4-2.1-3.5,1.2-5.2.9-3.1-.6-2.6,1.1-2.3,4.2,0,.8-2.3-1.2-1.2-2.6.5-.6-1-1-2.4,1.3-.7,1.2-1.5-.9-2.9.5-1.6,1.5-2.5.3-2.6,1.7-.1,1.8,2.3.9,1.3,2.9-.2.5,0,.7.7.6.5,0,1.1,1.3.7,1.5-1.7.8-.1,3.4-2,2.8-.5-.2-1.1-.7-1.5-.1-.3.6.5,1.1,1.1,1.9,1.4,2.1,3.2.9,5.3,1.4.8.2,1.4.3,1.9-.4.4.8.8,1,1.2,0,0-.2,5.3-1.4,6.6-.4,1.8,1.3,3.8-.8,5.5.5.2.1.7,0,1-.1.8-.5,1.4-.3,2.2,0,.3,0,4.3-.9,5,1.4.2.7,1.6,0,1.8-.1,2.9-.9-1-2.3-.7-2.6.2-.3,1.8-.4,2.2.2,1,1.7,2-1.2,3.4.5.8,1,2-.2,5.5-.3.5,0,1,.3,1.6,0,3.7-1.6,3.8-.8,3.1-3.1-.1-.4.5-.5.7-.4,2.5,2.9.1-1.6,5.1.3.8.3.8-.9,1.3-.5,3.9,3.3,2.9-.4,4.8-.5.6,0,2.1-.8,1.4-1.8-.7-1.1,1.6-.7.6-2-.4-.5-.3-.7.2-1.1,1.1-.8-.1,3.6,4.6,3.2.7,0,.9,1,1.4,1.2.9.4,1.3-1.1,2.3-.8,1,.3,1.9-.2,2.7-.9.2-.2.2-.6.7-.3.5.3,1.7.4,1.6.8-.2,1.1-1.6.7-2,1.6-.5,1,1.8,0,2.9.2,3,.6,1.9-3.3,3.5-1.9.7.6,2.4,2,2.8,1.2.9-2.2-3.1-3.3-2.4-4.4.4-.6,2.3,1.7,4.3,1.7,1.3,0,3.9,5.5,6,3.6,1.1-1,4-.8,3.9-.7-3.5-5.2,3.7,1.4,4.2-3.3-3.7-1.3-.5-2.3,0,0,1.6-.3,3.7-1,3,0-.9,1.3,1,4.3,2.6.2.9-2.4,4.7-2.8,5.7-2.4-1.7,1.9.8,2.2,1.6,2.1,3-.4,1.8,1.1,2.5,1,1.2-.3,2.3-.9,3.6-.8,1.3.2-1.8-1.1,1.4-2.8.3-.2,0,.9,1.7,1.3,1.5.3-.4,1.6,0,2.2.5.8,3.8-1.1,4.3-1.9.7-1,4.3.3,2.6.4-3.8.3.7,1.5.9,2.5,0,.3,2.6-.6,2.1-1.4-.2-.4-.4-.8-1-.8-.3,0-.9.2-.8-.2.3-1.3-1-1.3-1.4-2.1-.4-.9-.9-.7-1.6-.4-1.4.6-1.9-2.8-.8-2.3,1,.5,1.7.3,2.4-.4.6-.7.5.5,2,2.6,1.3,1.8,1.8-.2,3.3.8,1.6,1.1.3,2.6,1.5,2.1.9-.4,2.9.1,2.4-2.3-.3-1.6.1-1.2,2.9-1.5.9,0,.6-.4,1.3,1.1.5,1-1.5-.3-2.2-.2-1.1.2-.9.9-.7,1.1,1.4.8,1.2,2.9,1.7,1.8.5-1.1,6.1,2,6.1,1,0-1.1.9-1.4,1.4-2.1.3-.4-.7-.9,0-1.5,3.3-2.4,1.9.1,5.5-2.4,2-1.4,2.7.8,3.4-.4.6-1,4.4-2.5,4-.3-.1.8.6,1.6,1.4,1,4-3.5,1.2,0,.5,1.5-.8,1.9,2.2-.5,2.4.4.8,2.6,3.8.5,3.3,2.8-.4,2.2,1.8,1.5,1.5-.4-.5-4.4.6-1.3,1.8-1.1,1.4.3,3,2.3,3.6,0,.2-.9-.9-.2-1.6-.1-1.4.2-.4-2.4,0-3.8,0-.2.9-.4.8.3-.2.9.4,1.6,1.2,1.3.4-.2,0-.7.1-.8.8-.7,2.8.3,3.6-1.3.6-1.2,3,3.1,4.8-.2,1.3-2.4,3.1-.3,4-1.1,1.9-1.6,1.9,2.2,3.8,1,.6-.4,1.4,3.3,1.2,3.1.9,0,.7-1.2,1.5-1.2,2,0,1.4-3.1,3.5-.3.9,1.2,1.7-1.6,3.1-1.5.9,0,2.9.8,2.8-.6-.2-1.3,1.5-1.6,2.3-1.4,1.2.3-1.5,1.4-1,1.9,3.2,3.6,3.8-3.7,4.4-.9.2,1,1.8.9,1.6,2.3-.2,1.8,4.4-2.4,6.5-1.3.8.4,1.6-.5,2.4-.6-.2-.2-.5-.5-.7-.7,2.6-1,2.7,5.5,3.1,2.1.2-1.4,0,0,2.7-1.3,1.9-1,.9,2,2.2,1.3,2.2-1.2,2.6.2,5.2,1.2,1,.4.6-1.5,0-1.6-1.3-.1-1.7-1.4-2.7-1.9-.7-.4.6-.7,1.3-.8.6-.1-.3,1.5,1.2,1.7,4.9,1,4.9,2.7,6.1,3.3.1,0,.4-.3.3-.4-.7-1.4-1.4-1.3-.9-1.9.7-1,3.9.6,4.6,1.7.5.8,1.4-1.8.7-2.5-1.9-1.8-1,0,.7-1.9,1.6-1.9,1.2,3.1,5.1,2.3.8,1,2.6-.7,3.1,1.2,1.8-.9.2-1.2.9-1.4.4,0,.8.2,1.3.3,1.3.3.8-1.4,1.9-.7,1.9,1.3,1.1,1.9,2.6,1.5,2-.5,1.5-1,1.3-1.9-.9,0-2.5,0-2.3-.5.3-.8,1.4-1.4,2.3.5.9-.4,1.6-.9,2,0,1.5,3.4,4.2.9,6.2,2.1.7.4,0-.8.9-1.7.5-.5-.2-1.1,0-1.6.2-.6.9-.5,1-.3.9,1.8,1.1.6,1.9,1.6.7.8,1,1.4,2.1.4.7-.7-.4-1.1-1.2-1.5-.5-.3,0-.6.2-.5,2.3.5,2.3,1.4,5.2,1.4.8,0,1.5,0,1.2.6-.7,1.5,1.2.1,2,.8,2,1.7.9-1.9,3.6-.9,2.4.8,1.4-1.1,3.7-.3,3.6,1.2,3.5-1.3,4.1.3.3.7,1.3,0,1.5.9,0,.4.6.3.8.1.6-.5-.9-1.6.8-1.6,1.3,0,1.1,0,0-1.3-.5-.7.2-1.2.8-1.3.8-.1,1.3,2.1,0,2.5.5,1.1,2.9,1.2,4.1-1,.1-.2.4-.5.4-.5,1,.6,2.4,0,3.2.9.7.8,4.8,1.7,5,1.8,1.5.3.5-1.7.8-1.8.7-.2,1.5-.9,2.2-.5.9.6,2.3.1,2.9,1.5.7,1.6,3.3.8,3.7.3,4.7-5.3,2.5.2,6.1-1.8.5-.3,1.1-.6,1.4.1.7,1.3-5.1,4.1,3,1.4.8-.3.6-.7.4-1.3-.2-.5.3-1.2.8-1.1,1.9.7,2.1-.4,2.4.5.7,1.9,3.2.6,5.2,1.2,1.5-1,1.8,1.1,2.5.8,0,0,.2-.2.2-.2-.4-1.3.5-.9,1.1-.9,1,2.1,2.1.3,3.7.9,1.3.5,3.4-.3,3.3-.6-.8-1.8,3.1-1.4,3.7-1.6,3.2-.7,1.6,2.5,4.6.9,3-1.6,0,2.1,3.4,1,1.4-.5.7,1.5,1.7.9,1.9-1.1,2.6-1.4,1.4-2.3-.6-.5.1-.8.9-.9.4,0,.4.3.5.6.5,1.6,1,2,2.4,1.5,2-.7-.5,0,5.4,0,3-.7,4-1.1,4.6-.5,1.5,1.4,3.5,0,5.1.7,2,1,.5-1.7,3.5-1.5.9,0,1.6.9,2.6.8,1-.1,2,0,2.9.6.8.6,1.4-1,1.9-1,2.5,0,4.9-1.2,7.4-.2.3.1.7,0,1,0,3.6-1.1,4.3,1,5.1-.4.3-.5.9-.6,1.5-.4,5.7,1.5-20.7,4.2-23,2.8-.2-.1-26.4,3.2-27.1,1.4-.9-2.3-1.5.6-5.9,1-4.3.4-2.3,1.2-4.8.8-7.2-1.2-8.1.4-9.6-.4-.4-.2-.9-.5-1.3-.3-1.3.8-2.9.2-4.3,1-.9.5-3.1-1.6-2.1.5-.9.7-1.8-1.3-2.7,0-1.2,1.7-1.9-1-2.8-.4-1.8,1.2-5.3-.5-6.6.7-1.6,1.5-2,.2-4.6-.5-2.1-.6-1.6,2.2-3.5.9-1.8-1.3-1.9,1.6-3.5.6-1.2-.7-15.1-1.1-16.8.1-.7.5.7,2.6-.5,2.2-12.8-4.1-8.1,1.5-13.1-1.3-.2-.1-8.7.9-10.2.9-3.2,0-.3,1.9-3.1,1-2.5-.8-3.2-.7-5.2,1-1.3,1.2-1.2-1.3-2.1-.8-1.9,1.2-2.7-1.4-4.8,0-2,1.3-1.8,1.2-2,1.3-.7.3-.6-.8-.9-.7-2,1.1-3.1-2.4-3.9,1-.5,1.8-1.7.9-2,.6-1.2-.1-2.5.3-3.6-.7-2.2-2.1-27.3,2.1-27.5,2-1-.4-4.3-.7-6,.3-1,.6.6.7.4,1-.1.2-1.5,1.2-2.8-.3-1.4-1.5-2.1-.3-4.1-.4-1.5,0-.4,2.1-2.3.8-.7-.5-1.3-.6-2.2-.2-1.2.5-2.7-.5-4,.1-1.2.5-2-.1-3.1-.8-1.2-.7-.4.6-4,1.2-2.2.4-.4,3-3,3-1.8,0-3.3.4-2.4-1-1-.7-1.9-1.7-2.8-.4-.2.3-1.6,1.3-2,.9-1-1.2-5-1.9-6.5-.1-2,2.3-3.7-1.3-6,0-.8.5-1.8-1.6-2.8,1.1-1,2.7-1.4-1.9-4,.5-.9.8-1.2-1.3-2.2-.5-.5.4-.1.7,0,1.1.2.5-.5,1.1-1,1-2-.7-.5-1.2-4-1.5-3.9-.2-2.7,1.9-3.9.5-1.1-1.5-1,1-2.8.6-.9-.2-1.8.2-2.7-.4-1-.6-.3,2.1-1.9,2.6-.4.2-1-.5-1.6-.3-1.8,1.3-2.9-2-4.4-.5-1.1-.5-1.8-.2-2.6.8-2.2,2.8-2.3-2.2-5.2-1-1.2.5-2.5.1-3.6.8-.4.2-1-.6-1.5,0-1.9,2.1-3-1.7-3.9,1.3-.8,2.8-1.7-1-4.5-.5-1.1,3.3-11.8-.1-16.3,4.4-1.6,1.7-3.3-1.4-3.9-.6-1,1.3-2.2.8-3.3.3-.5-.2-1.1.4-.8,1,.9,1.4-.1,1.9-.8.3,0-.2-1.3-3.8-2.2-1.9-.7,1.5-2,2.7-2.2,4.5,0,.8-1.2-.8-.5-1.8.9-1.3,0-1.3-.7-.9-1.1.8-2.9-1.2-2.2.7-.8.7-1,1.4-.5,2.3,4,.3-.3,2.6,0,0-.4.2-1.6-.5-1.1.9.3.9-3.1-.6-3.8,0-1.6,1.4-1.1,0-1.7-.2-1.1-.5-2-.5-1.4-1.6.5-.9-.7-.6-.8-.2-.6,2.7,1.1,1.6.9,3.2,0,.2-.7.8-1.8-.6-1.3-1.7-1.4-.4-1.2-.2,1,1-.9,1.4-.5,2.3,0,.1,0,.5-.1.5-3.7.5,1.1-3.1-.8-3.9-5.5-2.5-5.4,1.9-7.5.1-1.5-1.2-1.7-.6-2.1.3-.7,1.5-3.5,2.4-3,3.6.6,1.4-2.2,1.5-1.8.1,0-.2,1-1.2,0-1.7-1-.5-1.2.5-1.9,1.8-.9,1.7-1.8-1.2-3.8-2-.8-.3-1.6.6-.8,1,.7.4,3.4,2.5,2.2,3.1-4.4,2.1-1.6.8-4.6-1.2-.5,1.1-.4,1.6-1.1,1.2-3.1-1.5-1-1.8-3.1-2.8-.3-.2-1.1.3-.6,1.4,1,2.5,2.1,3.6.7,4.5-4.4,2.8-4.7.8-7,.2.3-.4.8-.2,1.1-.4.6-.3.6-.8.8-.6.3.3,1.4,1.4,2.3.7,1.8-1.3,1-4.3.4-3.8-2.6,1.8-2.6.8-2.7,3.1-.1-.1-.1-.1,0,0-2.2-1-.8-3.4-2.6-3.4-.8,0-1.5,1.6-1.5,2.4,0,.9-.9.8-3.3.7-3.2-.2-3-2.7-6.6-1-.9.4-3-1.1-2.2.4.6,1.1-1.5,2.3-2.1,1.1-.4-.8-.5-.8-3-1.2-.6,0-.5,1.8-.5,2.4,0,.9.8.6,1.6.5-1.9-1.9,1.1-2.3,2.9,1.5,0,.2,0,.7-.8.6-.5,0,.3-1.2-2.2-1.1-1.3,0-.8,2.7-2.3,1.7-1.1-.8-2.3,3.9-6.5-1.1-.4-.5-1.5-.2-1.4.1.5.9,0,2.4,1.7,2.5.5,0,.3.4.1.6-1.5,1.7-3.2-3.9-4.4,2,0,.2-.4.3-.4,0-.5-3.6-2.1-.8-4-.2-3,.9-.5,2.7-1.7,2.4-1.1-.2-1.8-.7-1.6-1.1.5-.8-.3-1.2-1.2-1.4-1.7-.3-.7,1.6-1.6,2.8-.2.3-.9.3-1-.2-.4-1.3-1.8-.6-2.6-1.2-.3-.2.7,4.1-1.2,2.7-1-.7,1-2-.2-2.3-.6-.2-1.5-.2-1.6.7,0,.4,1,1-.3,1.1-2.6.2-1,.6,1.1,2.1,1.1.8-1.4.5-2.4.9-1.1.4-1.7-2.1-2.7-1.1-.5.4-.2.6,0,.8,1.1,1.5,0,.5-1,2.9-.3.7,1.4,0,1.7,0,.8,0-.1,1,.7,1.1.5,0,.9.1,1.4.2,0,0,.2,0,.2,0,0,0-.1,0-.2,0,.6,1.1,2.5.7,1.9-.3-.8-1.5-.9-1.1-1.2-.6,0-.5-.1-1-.6-1.2-.4-.1-1.2-.2-1.1-.4.2-.7.9-.4,3.8.4q.2-1.2,1.4-1.3c-1.6-2.8.1-1.5,1.9-1.5.5,0,.2-1.5.8,0,1.9,5.1-.2,1.3-2.7,1.5q-.2,1.3-1.4,1.3c.6,1.7,1.1,1.1,2.9,1.6.8.2,0,1.3.1,1.7.3,1,1.5.9,1.6,0,.2-1.3.4-1.2,1.3-.3.9.8.7-.7,1.1-1.4.6-1,1.5-.2,1.7.3.1.3-.3,2.7.7,2,1.3-.8-.5-1.1,1-2.1.2-.1.4,0,.4.3.3,1.8,1.6,2.7,3.3,3,1.7.3,1.1,1.8,2,2,1.5.2-.2-1.2,3-3.3,1.3-.8-1.6-1.1-.9-2.5-3.3-5.2-6.5-5.2-2.3-5.1,0-2,1.4-1.5,2.9-2.9.5-.5.8,1.6-1.4,2.2-2.8.8-.3,2.1,1,1.6.8-.3,1.3-.7,4.6,1.3,1.5,2,1-2.6,4.4-4.7,1-.6.9.2,3.9,2,2,1.2,3.6-2,1.5-1.9-1.5,0,0-1-.9-1.2-1.4-.3-2.9-.4-2.8-1.8.4-4.3,1.8-.9,2.5.4,1.2,2.3,3.1,0,3.8.2.5.2.5,1.3,1.5.8.4-.2.8.3.9.8.2.9-.4.7-1,1.4,1.3.6,1.5,2.7,2.3,2,1.1-.9,2.1-1.3,1.7-.2-.2.6.8.4.9.1.6-2.3-.1-1.4-.7-1.8-1.9-1.1-.4-2,.9.2.4-.1,1-.5,1.2-.4,1.9,1.7,4.1,1.1,3,1.7-1.7,1-2,1.6,1.6,1.5,2.7,0-.9-3.5-2-3.8-.4-.1.2-2-1.5-1.7-1.2.2,0,1-.6,1.2-.9.3-.8-.8-1.1-1.7-.3-.9,1.2-1.4,1.4-1,1.4,2,.4-1.7,1.6-.7.9.8,1.8,2.6,3.7,1.3,1.1-.8.7.9,2.5,2.2.4.3.6-.1.6-.5,0-.8-1.1-1.5-1-1.7.5-.9,3.9,2,5,2.1.7,0,1.5.3,1.9,1.1.1.2,1,0,.9-.6-.2-.9-1.1-2.2,0-2.7,1.8-.6.9-.1,2.3,1.1,2,1.7,3.9-.6,4.6-.5,3,.5.9-2.1,2.1-2.4,1.9-.5-.5-6.1,2.9-.5.6.9,3.2-.6,2.3-2.2-.2-.4-.1-.3,2.4-1.5.5-.2,2.1,2.1.9,2.3-2.2.4-6.3,4.9-4.1,6,1.2.6,1-1.6,1-1.9.2-3.4,3.3.1,6.1-3.3,1-1.2,2.2.5,2.3.8,1.6-.7,2.2.4,2.1-1,0-1.4,2.5-2.4,4.1-1,3.3,2.8,2-.3,4.1,1.3.5.3.7-.1.6-.3-2.7-5.2-7.3-6.1-4.8-6,.8,0,3.5,1.5,4.4,2.4.3.3,1.3-.4.9-1.2-.8-1.9.9.5,3.7-2.5.7-.8,2.2-.2,2.5.8.4,1.3,1.2,0,2.7,1.2,1.7,1.4-1.3.2-1.5,1.2-.3,1.1,2.2.7,2.4.6,1.7-.9,1.1,1.4,2.4,1,.7-.2.2-1.5.6-2.1.5-.9,1.5.6,3.8-.4,1.4-.6.8,1.3,1.3,1.2,1.5-.3.9-2,.9-2.6.2-1.5-1.8-1.5-2.8-2.5-5-5.1,3-1.5,4.1.6.4.7.5.7.8.4.6-1,1.6-.6,1,1,1.3.4,2,1.9,3.6,1.8,1.9-.1,1.9,1,2.5-.2,1.2-2.6,4.2,3.2,6.3-1.3.1-.3,2-.6-.1-.9-2.8-.4-2.3,0-2.7-.8-.8.4-1.1.8-1.6,0-.6-.9,1.5-1.3,1.6,0,1,.2,1.9-.7,2.9,0,.9.6,1.6-2,3.4-.8.8.6,1.2,1.5,2.3.7,0,0,0-.2,0-.3-.5-1-.1-2-.4-3,0-.2-.8-.9-1.2-.2,0,.1,0,.4-.4,1.3-1.7-2.4-.7-1.7,4.6-4.2,0,0,.3.3.3.4-.7,1.3,2.3.9.6,1.6-2,.8-.3,1.8-.6,2.3-1.3,2.3,4.8,3.2,3,1.4-1.6-1.6,1.9-.8,2.2-3.1,0-.2,1.7-2.8,1.7,2,0,1.4,2,.4,2.2-.2.3-.8,2.1.8,1.5-1.1-.5-1.5,2.5-.9,3.3-.6,2.1.8.2-2.3,2.1-2.3.8,0,.8-1.1,1.6-1,.5,0,1.9,1.4,1.2,1.8-1.7,1.1,1.8,0,1.4,2.8-.2,1.6,3,.4,2.5-1.6-.7-2.7,1.8-.3,2.8-3.1,0-.1.4-.3.5-.2.4.4-.4,1-.2,1.5.9,2.3,4,.2,3.7-.7-.9-2.8,1.2-2.2-1.5-3.6,1.4-.4,1.4,0,2.9.3.7.2,1.4-.7,2.3-.4,2.3.7-1.2,1.1.4,3.1,1,1.3,1.2,1,1.6-.1.4-1.3,2.5.5,2.6,1.2.3,1.1,1.2,0,1.7.3.6.3,1.2,1,.1,1.2-1.4.2-4.5-1.5-4.4,1.3,0,.7,1.3,1,1.8.1.6-1,1.2,0,1,.5-.5,1.3,0,2,.8,2.1,1.3.2,1.1-3,3.9-3.9.6-.2.5-1.2,1.1-1,.7.2,1.1-.2,1.6-.3,2.3-.9,4.3,5.5,4.7.8-1.9-.3,0-.2-2.8-1.9-1.2-.7.9-1.4.4-2.1-.2-.2-1.1-.3-1.2-.5-1.5-2.8,6.8-.1,5.3,1.9-3.3,4.5-.4,1.4,2.8,3.2.5.3,4.9-.5,3.6-2.1-.9-1.1-2.6,2.2-3.2,1,0,.2,1.6-2.8,1.1-3.3-1-1-.5-.7-1.3,0-.3.4-1.3.5-1.5.2-.2-.4.1-.6.2-.8.5-1.8,3-.8,4.7,0,1.3.5,2-1,.4-1.5-.6-.2-1.1.2-1.4-.6-.1-.4.2-.7.6-1.1,2.2-2,2.6,1.7,4.3,1.9,1.4.2-.4,2.1,1.3,2,1.3,0,2-.9,2.4,0,.4,1.1,1.4.5,2.6-.1,3.1-1.6-4.9-3.1,1.8-3.1,3.3,0-1.8,4,1.6,3,1.7-.5.4,1.5.6,1.7,1.6,1.2,4-3,4.6-2.6,1.1.6,1.2-.7,1.4-1.3.9-2.8,2.4-1.1,3.3-2.3.7-.9.6-2,1.6-2,.5,0,2.9-.2,2.3.4-.9.9-1.3,2.4-2.6,2.9-.3.1-.3.6,0,.7,1.1.4.5,1.7,1.2,1.2,4.1-2.8,3.1-3.5,4.8-2.6.8.5,3.6-.2,3.6,2.2,0,.5.5,1.6,1.6,1.1.2,0,1,.2,1.1.4.1-1.9-1-.9-1.2-1.9,0-.6,1.2-1.6,2.7-.5.8.6,1.6-1.7-1.3-2.6-1.7-.5-1.8-2.2-2.4-3.5-.1-.2,1-.7,2,.3,2,2.2,2.6-.7,4,1,.6.7-.3,1.5.4,2.1.7.5.8,1.4,1.1,2.1.4.9-2.5.3-.8,1.1,2.2,1,1.8,1.6,2.6,1.4,1.9-.6-1-5.8,2.7-2.9.4.3.6-.2.6-.4,0-.5-.9-1.2.2-2.1.8-.6.9.5,2,1.3,1.4,1,0-3.2,1.8-2.7.2,0,9,.8,4.5,3.2-1.3.7.6,1.4-.7,3.7-.4.7,2.5.7,2.1-.9-.4-1.6.7-2.8.7-4.3,0-.4.6-.3.9-.2,1.6.6-.2,1.7,1.2,1.9,2.2.2,3.3-1.3,3.1-1.8-.1-.3-.3-.6-.5-.8,1.5,0,2.3,1.7,4,1.2,2.4-.6,2.1,2.6,3.3.9.2-.3.2-.8.4-.8.6-.2.4.6.8.8,1,.5,1.1.4,4.3-2.2.6-.5,0-1.2-.6-.9-1.1.7-2,1.7-2.5.6-3.1-8.3,3.2.4,5.2-4.4.3.9,0,3.6-.2,3.7-.6,1.1.5,1.3.7,1.9.4.9-.3,1.7.9,2.3,1.8.9,2.9-5,3-5.2.7-2.2,3.8-.2,4.1.9.1.5,1.6-.5,1.5.4-.1,1.1-2.9.6-3.8.7-.2.2.4.4-2.4,3.4-.4.4.2.6.5.5,2.5-1.4,2.1-3.1,2.7-1.5.5,1.6,1.8.6,1.9-.3,0-.8-.4-1.5.6-1,1.6.7.8-.8,4.8-.8,1.5,0,.1,1.5,2,1.3,2.1-.2-.6-3,1.5-2.4.8.2,2-.2,2.1.3.1,1.2.7.8,1.1.2.7-1.2,2.5-.5,1.2-1.3-1.9-1.3-.9-3.1,2.2-1.3.7-.8.9-2.1,1.9-2.7.6-.3-.6-1,.2-1.3,1.4-.6,1.5-1.5,2.3-.8,1.8,1.6-3.5,3-.9,4.9.8.6.1,1.2-.5,1.3-2.9.1-.7-.9-3.1-1.4,0,.9.3,1.8-.2,2.6-.4.6.1.8.5.8,2-.2,2,1,2.5,1.8.5.8,1.5-.3,2.7-.7,2.7-1.1,0-1.7,1.6-3.4,1-1.1-1.6-1.7.3-2.5,1.3-.6.9.5.8,3.5,0,2.2,1.8-.7,3.5,0,.5.2,4.1-4.4,6.3-1.2.5.7,2.8-.6.9-2.6-.4-.4-.2-2.1,1.8-1.6.4.1.7,0,.5-.8,0-.2-1.3-.9-.3-1.4,4.4-1.9,1.8,2.7,4.5,3.3,2,.4-1.6.3-.7,4,0,.3,0,2,.4,1.9,1.6-.6,1.9,1.5,4-1.3-.3.4-1.5-2.9-.4-2.1,2,1.5.3.6,8.6-3.9.7-.4,1.9-.4,1.1.4-1.1,1.2,5.6,4.6,4.8,1.3-.5-1.9.9-1,.5-2.6-.7-2.7,3.4,0,4.5-.4.2,0,.2-.9.6-.2,1,1.9-2.5,1.2-1.4,2.1,4,3.3-3.1,2.7-1.9,4.5.7,1.1,2.2-1.2,3.5-1.2.5,0,.7-1.7,1.9-.8,1.5,1.2,1.4,2.1,1.6,2.1.8-.3-.1-1.8,1.7-1.4,3.4.8.4-3.3,1.4-2.8.8.4,2.5-.5,2.4,1.4,0,.4,1.3.6,2.3-.3,1.4-1.2,3,1.2,3.3,1.3,2.3-1.2,1.8,2.2,3.5,1.5,1.1-.4,2.2-.2,2.3-1.6,0-1.3.5-1.4.7-1,.5,1.1,1.3.2,2.1-1,.6-.8,2-.1,2.4-1.3.8.7.2,1.5.7,1.6.4,0,2.4-1.3,1.1-2.8-.2-.2.7-1.2,1.1-.6.2.2,1.1,2.1,1.9,1.6.9-.6,1.4-.3,1.9.5.3.5.8,0,1.2-.1,1.9-.2.1,1,1,2.1,1.7,2,1.9-3.5,3.4-2.5.7.4,2.7,3,4.5.6-4.8,0,2.1-4.2,0,0,.2,0,4.5,0,5.2-1.6.3-.7,1.7.9,2.2,1.2.7.6.8.6,3.9-.2.9-.2.4-4.4,1.9-1.6,1.2,2.2,1.9,1.7,1.7,1.5-.7-.9-.4-3.2.3-2.3,1,1.4,1-.7,3.2,1,1.5,1.2.1,1.7,2.2,1.3.7-.1,1.1.9,1.9.5,2.2-1,5.1-.2,3.7-1.2-3.6-2.6-4.7-1-4.9-1.8,0-.3,1.6-1.5,1.8-1.6,1.9-.6-.6-.9.3-1.7.6-.5,1.2.4,1.9,0,.6-.5-.8,2.2.7,1.4.9-.5,1.5-2.8,2.3-1,.1.3,0,.6,0,.6-3.7,2.1,1.7,2.1,1.3,3.6,0,.2.3.4.5.2,1.3-.8,1.8.8,2.1,0,.8-2,1.6.7,6.6-1.4,1.6-.7,1.9.9,3-.5,1.5-1.9,2.1.3,3.6,0,1-.2,3.3-.6,2-1.3-1-.5.5-1.7,1.2-1.1,3.2,2.7,13.6-4,14.9-3.1,1.3.8,1.6-1.4,2.3-1.1,1.9.9,5-2.9,7.6,0,.9,1,2.4-2.2,4.6-1,.8.4,2.8-2.2,4.2-1.3.5.3.5-1.3,2.4-1.1,4.7.6,2.8.5,5,.2.3,0,2.8-1.3,2-1.9-1.5-1-1.5.8-2.4.4"/>
  <path class="st0" d="M1030.7,140.7c-1.5.6.8,1.3,2.7,2.1,2.5,1.1,3.5-2.7,3.4-3.6-.1-1.3-2.1-.8-3-1.8-.3-.3-.3-1.1.3-.8,1.6.8,1.8-.9,1.2-1.5-.8-.8-1.6,0-3,.8-1.3.8,1,1.7-.9,2.3-.1.9.8,1.9-.7,2.5"/>
  <path class="st0" d="M1024.8,142.2c-.8-1.1.6-1.8.6-2.8,0-.7.8-.7,1.3-.7,1,0-.6-1.1.8-1.3.1-.2.4-.3,0-.5-1.1-.5-.6-1.2-.2-2,.2-.5-.3-1-.7-.8-2.7,1.4-2.1-1-4.7-.2-.8.3.3.7,1.7,2,1.1,1-1,1.7-1.1,2.8-.3,1.9,1.5,1.2.9,2.1-.6.9-1.1,0-1.8.4-2.4,1.8,4.8,3.3,3.2,1"/>
  <path class="st0" d="M978.5,138.9c0,.1-.2.2-.4.2.1,0,.3,0,.4-.2M977.2,137.8c0,0,0,.1,0,.2,0-.2-.4-.2-1.4,0-1.3.3,1.5,1.7,1.4.7,0-.3,0-.4,0-.6,0,.3.2.6.3.8,0,0-.2-.1-.3-.2,0-.1,0,1-.1,1.3,1.5.4,1.9.6,2,0,.1-.5,1.3-1-.6-1.3.7-1.4,2.3,0,3,.1.3,0,1.3-.3.7-.9-.6-.6-.8-1,.1-1.4-.1-1.8,3.8-1,2.3-.5-2.1.8,0,.8.2,1.6.2,1,2.2-1.4,1-2.6-1.3-1.3-1.3-2-2.3-1.5-4.6,2.3-4.7,2.6-5.4,1.9-.9-.8-3.5-.2-2.5.5,1.4.9,1.6.3,1.5,1.8"/>
  <path class="st0" d="M931.3,144.3c0,.4.7.5,1.1.2,1-.9.3-1.5,0-1.4,1.3-.3,1.9,0,2.6.3.8.3,1.3-.6.5-1.2-.2-.2-.7-.2-.5-.7.7-1.6-2.5.3-3.9-.6-2.6-1.7-4.7.6-4.6,1.3.5,2.3,5-.8,4.7,2"/>
  <path class="st0" d="M903.5,138.6c0,0-.1-.1-.2-.2,0,.2,0,.2.2.2"/>
  <path class="st0" d="M913.3,141.9c0,.2,0-2.1-1.3-1.9-2.9.4-1.6-1.5-3.7-2.1-.7-.2-1.4-.4-1.9.4-1.1-1.7-2.4,0-2.9.3,1.3,1.4,9,3.5,9.8,3.3"/>
  <path class="st0" d="M900,141.9c1.4-2.2,1.4-3.4,3.3-3.4-.2.2-.8-1.5-1.4-1.2-7.1,3.5-3.2,6.8-1.8,4.6"/>
  <path class="st0" d="M1007.8,138.3c1.3.6,1.2-.3,1.8,0,.4.1,1.7,1.2,1.8,0,0-1-1.6-.7-.7-1.8,2.1-2.5-2.2-3.3-2.3-2.9-.4,2.1.6,1,.9,1.1,2.5.7-3.9,2.2-1.5,3.4"/>
  <path class="st0" d="M921,140c1.1-1.1-1-1.1.9-2.9,1.7-1.6-6.2-.5-5.1.3,3,2.1,2.9,3.8,4.1,2.6"/>
  <path class="st0" d="M784.9,167.4c-1.7,1.1-2.1-.4-3.3-1.3-.9-.7-.8.9-2.6,1.1-3.2.3,7,1.9,7.9,2.2.9.3.9-.8,1.1-.6-1.8-.3-1.6-2.3-3.1-1.3"/>
  <path class="st0" d="M964.6,143.7c.9-.8,2-1.6,1.4-2.3-3.2-3.9-2.5,0-3.3.7-1.1,1,.7,2.7,1.9,1.6"/>
  <path class="st0" d="M675.5,206.6c-1.8-.7-2.6-4.1-3.8-3,.2,1.2-2.2,2.7-.5,2.7,3.2,0,2.9,2.1,4.6,2.1.8,0,0-1.6-.3-1.8"/>
  <path class="st0" d="M753.4,173.6c.6-.5,1.2-.8,2-.7,2,0-.7-3.7-1.3-2.5-.8,1.6-.7,2.3-1.2,1.3-.4-.8-.7-.5-1.3-.2,0,.8,1,2.7,1.8,2.2"/>
  <path class="st0" d="M748,170.9c-.3-1.3-2.4-2.2-4.1-1-1.4.9,3,4.1,4.1,1"/>
  <path class="st0" d="M567.8,217.7c.1-.7-.9-.8-1.9-1.1-2.8-.7-2.7,3.8-.8,1.4,1.5-2,1.6,3.9,3.1,2.6.2-.8-.7-1.5-.4-2.9"/>
  <path class="st0" d="M983.4,143.5c1,.3,2.3-.9,2.4-.9,1.9.6,3.2-2.7,1.6-2.2-2.1.7-5.5,2.4-4,3"/>
  <path class="st0" d="M976.6,140.7c-.4,1.5.8,2.9,0,4.4,3.5,1.2.6-6.9,0-4.4"/>
  <path class="st0" d="M1055.8,146.5c0,0-.3.2-.5.3.5.8-.1,1.2-.5,1.7-.7.8,7.9,2.8,1-2"/>
  <path class="st0" d="M770.7,195.5c-.3.3-.2,1.2.3,1.3,2,.4,2.6,2,2.9,1.1.2-.5.5-.7.9-.9.2-.1,0-1.6-.2-1.8-.7-.5-1.8,1.9-3.9.3"/>
  <path class="st0" d="M1055.5,138.7c3.5-.6,1.1-5.2-1.3-1.2-.3.5.8.9,1.3,1.2"/>
  <path class="st0" d="M1031.4,138.2c-.2.2-.9-2.2-.3-3.5.2-.3-.6-.7-.8-.3-2.7,3.3-1.4,4.5,1.1,3.9"/>
  <path class="st0" d="M1036.8,137.6c.7.3.8,1.4,1.7,1.5,3.3.2,0-2.4-1.1-2.6-.4.3-1.3.8-.6,1.1"/>
  <path class="st0" d="M944.8,135.2c-.8-.6-1.9-.3-2.8-.1-.4.1,0,0,.1.3.2.9-.6.7-.9,1.1-.9,1.5,1.5,1.6,3.6-1.3"/>
  <path class="st0" d="M959.8,138.2c-.6-1.5-1.5.8-2.4.1-.2-.1-.2-.5-.3-.5-1,0,.3,2.6.6,2.8.5-.1,2.4-1.7,2.1-2.4"/>
  <path class="st0" d="M646.6,197.3c-.2.2-1.4-7-2.4-.1-.1,1,2.2.2,2.4.1"/>
  <path class="st0" d="M935,139.6c1-.7,2.9,2.4,3,.7-.4-1.6-2.1-1.2-3.6-2-.2-.1-2.1.6-1.3.9.6.2,1.1.9,1.8.4"/>
  <path class="st0" d="M888.7,142.8c.2.1.4-.1.6-.2-.2-.9-3.8-4.5-3.7-3.2.1,1.4-.4.9,3.1,3.4"/>
  <path class="st0" d="M616,182.7c-1.3-2-1.3.5-4.2,1.5,0,0-.2.2-.2.2.7,1.6,4.3-1.2,4.4-1.7"/>
  <path class="st0" d="M942,142.1c-1.1,1.3,1.6,2.1,1.2,1.2-.2-.5.2-.8.4-1.2.7-2.1-2.6-2.1-1.6,0"/>
  <path class="st0" d="M778.4,171.8c1.2-.3,1.4-3.2-.7-2.3-.6.2-1.6.6-1,.9.9.3.6,1,1.6,1.5"/>
  <path class="st0" d="M728.7,196.4c-1.6.6-1,4.8,1.2,1.1,0-.5-.9-1.3-1.2-1.1"/>
  <path class="st0" d="M1054.6,142.4c1.8.9,1.6.6,2,.3-.2-3.9-4.1-1.3-2-.3"/>
  <path class="st0" d="M1059.9,141.6c-.9-2.6-5.6-2.9-.2.6.2-.2.3-.2.2-.6"/>
  <path class="st0" d="M610.3,220.3s0,0,0,0c0,0,0,0,0,0"/>
  <path class="st0" d="M607.8,221.2c-.3.5.3,1.5.8,1.4.3,0,.7-.5.7-.6-.6-1.1,1-.9,1.1-1.7-.2,0-1.7-.5-2.5.9"/>
  <path class="st0" d="M595.4,220.1c-.2.5,1.6,1,1.8,1.8-.3-.3,2.7.4,1.7-.6-.5-.5-3.3-1.8-3.5-1.2"/>
  <path class="st0" d="M791.8,191.4c-1.5,3.4,2.2.4,2.3,0-.3-.5-2-.5-2.3,0"/>
  <path class="st0" d="M813.6,166.7c-.6-.5-2,1.5.3,2,1.9.1,1.2-.8-.3-2"/>
  <path class="st0" d="M1041.7,137.1c-.5,1.2,2.6-1,3.4-1.4-.6-1.4-2.7-.2-3.4,1.4"/>
  <path class="st0" d="M1045.1,135.7c0,0,0,0,0,.1.2-.2.1-.2,0-.1"/>
  <path class="st0" d="M998,139.4c2.9-.5.6-2.8-1.1-.8-.4.5.1.5,1.1.8"/>
  <path class="st0" d="M703.4,172c-.8-.3-.5-.9-2.2,1-.7.8,2,1.7,2.2-1"/>
  <path class="st0" d="M602.5,182.6c1.2-1.4-3.3-1.4-1.3.7.4.4.8,0,1.3-.7"/>
  <path class="st0" d="M596.5,224.3c.7.7.6-.9.7-2.3.2.2-2.9.2-.7,2.3"/>
  <path class="st0" d="M772.8,146.3s0,0,0,0c0,0,0,.1,0,0"/>
  <path class="st0" d="M772.2,144.8c-2.5-.7-.7,1.6.6,1.5.2-.3.8-1.2-.6-1.5"/>
  <path class="st0" d="M807.8,191.9c0,.2,0,.9.1,1.5.2.8,3.6.3-.1-1.5"/>
  <path class="st0" d="M807.7,191.9s0,0,0,0c0,0,0,0,0,0"/>
  <path class="st0" d="M977.2,140s0,0,0,0c0,.2,0,.1,0,0"/>
  <path class="st0" d="M664,193.1c-.4.2-.7.4-.3.6,3.7,2.7,2.3-.8.3-.6"/>
  <path class="st0" d="M945.3,136.7c.4.1.6.3.8.2,2.7-1,1.1-3.7-.8-.2"/>
  <path class="st0" d="M1046.8,138.9c0,0-.2-.2-.3-.2-4.2,1.7.5,2.1.3.2"/>
  <path class="st0" d="M932.1,137.5s.1.1.2,0c2.2-1.4-5.8-1.8-.2,0"/>
  <path class="st0" d="M923.6,142.4c1.8-.2.1-2.3-.7-1.8-.6.4.3,1.7.7,1.8"/>
  <path class="st0" d="M730.7,146.8c-.1-.1-.2-.4-.4-.4-4.6-.5.5,2.6.4.4"/>
  <path class="st0" d="M871.1,187.4c-.2,1,1.6,1.1,1.8.3.2-.7-1.6-1.3-1.8-.3"/>
  <path class="st0" d="M620.2,181.6c-1.5-.2-1.4,1.4-.5,1.4,1.6,0,1.3-1.4.5-1.4"/>
  <path class="st0" d="M771.5,192c-.3,0-1,0-1,.3,0,2.2,3.8.5,1-.3"/>
  <path class="st0" d="M592.9,209c1.3-1.1-.4-3.3-.8-.8,0,.5.2,1.4.8.8"/>
  <path class="st0" d="M656.7,211c-1.2,1.7-1.3,3.7,1.1-.3.2.2-.7-.3-1.1.3"/>
  <path class="st0" d="M645.1,214.3c.5.1.9-.9.9-.7.1-3.6-2,.5-.9.7"/>
  <path class="st0" d="M894,140.1s.3-.3.3-.5c0-2-4-.6-.3.5"/>
  <path class="st0" d="M700.1,148.9s0,0,0,0c0,0,0,0,0,0,0,0,0,0,0,0,4.5,0,.3-2.6,0,0"/>
  <path class="st0" d="M615.5,220.6c-.3.5,1.5,1.4,2.1.9-.3-.3-1.5-1.7-2.1-.9"/>
  <path class="st0" d="M610.2,220.2c0,0,.3-.1,1.1-.6.5-.4-2.8-2.6-1.1.6"/>
  <path class="st0" d="M610.3,220.3s0,0,0,0c0,0,0,0,0,0"/>
  <path class="st0" d="M624.8,218c-.2-.2,3.2-.5,2.2-1.2-.5-.4-1.9-.3-2.2,1.2"/>
  <path class="st0" d="M743.2,193.5c-.8,0-.9,1.4-.2,1.6,1.5-.5,1-1.7.2-1.6"/>
  <path class="st0" d="M837.8,175.6c3.3.2-2.3-3.9,0,0"/>
  <path class="st0" d="M844.5,189.5c-1.4.6.5,1.8.8.9.3-.8-.3-.9-.8-.9"/>
  <path class="st0" d="M712.5,173.5c-.8-.3-1.1.4-1.3.8,1.2.6,2.3,0,1.3-.8"/>
  <path class="st0" d="M689.7,175.3c-.3,4.1,2.8.6,0,0"/>
  <path class="st0" d="M729.1,186.1s0,0,0,0c0,0,0,.1,0,0"/>
  <path class="st0" d="M729.1,186.1c0,0,.2-.3.3-.5.6-1-3.2-2.2-.3.5"/>
  <path class="st0" d="M891.7,184.2c-2.2,0,.6,3.3.3,1.1,0-.5.2-1.1-.3-1.1"/>
  <path class="st0" d="M854.6,184.9s0,0,0,.1c0,0,0,0,0-.1"/>
  <path class="st0" d="M855.1,183.9c-.9-.2-1.7-.6-1.9.3-.2,1.1,1.3.6,1.4.7.2-.3.6-1,.5-1"/>
  <path class="st0" d="M861.7,187.8c.9,1,1.7-1.2,1.8-1.1-1.2-.4-2.1.8-1.8,1.1"/>
  <path class="st0" d="M859.5,188.8c-.1.3.6,1,.7.8.9-.8,0-2.3-.7-.8"/>
  <path class="st0" d="M911.1,182.5c.3-.1.9.3.9-.4,0-1.1-2.3-.5-.9.4"/>
  <path class="st0" d="M835.2,187.8c-1,0-1.1.6-.5.7,2,.4,1.9-.4.5-.7"/>
  <path class="st0" d="M707.3,174.1c-.5-.3-1-.5-1.4-.8-.7-.3.2,2,1.4.8"/>
  <path class="st0" d="M743.1,173.5c-.2-.9-1.4-.6-1.2,0,.2.8,1.5.6,1.2,0"/>
  <path class="st0" d="M795.7,167c-.8,0-.8.9-.2,1,1.1-.5.5-1,.2-1"/>
  <path class="st0" d="M634.9,199.7c1.1-.2.2-1.1-.5-1.1-.9,1.1-.1,1.2.5,1.1"/>
  <path class="st0" d="M600.8,205.2c0,0-.2-.2-.3-.2-2.5,1,.3,1.5.3.2"/>
  <path class="st0" d="M917.3,144.3c.8,0,.8-.9.4-1.1-.5-.2-1.2.3-.4,1.1"/>
  <path class="st0" d="M888.8,139.9c.8,0,.6-.8.2-1-.8-.3-1,.9-.2,1"/>
  <path class="st0" d="M985.3,139.1c-.3-.1-.6-.3-.8-.3-1.5,0-.3,2.2.8.3"/>
  <path class="st0" d="M967.5,138.9c-.2-.3,0-.4-1.4.3-.6.3,1.2,1,1.4-.3"/>
  <path class="st0" d="M940.1,136.9c-.4-1-.9-.6-1-.3-.3.8.8,1.1,1,.3"/>
  <path class="st0" d="M1003.9,136.7c0-.9-1-.5-1.1-.2-.2.8.9,1.1,1.1.2"/>
  <path class="st0" d="M966.6,134.3c-.4,0-.9,0-.4.5.7.8,2.3,1.1.4-.5"/>
  <path class="st0" d="M685.4,158.1c-.2-.1-.4-.2-.5-.4-.2-.4-.2-1-.4-1.2-.5-.3-.5.6-.9.7-1.3.2-1.9,0-1.4.4.8.6,2.6,5.1,3.2.5"/>
  <path class="st0" d="M686.4,158.1c4-1.2-1.3-3.8-1,0-.2-.2.5.2,1,0"/>
  <path class="st0" d="M665.5,158.9c-.7.3.2,1,1,1.7.4.3,1.1-1.6-1-1.7"/>
  <path class="st0" d="M720.3,160.5s0,0,0,0c0,0-.1,0,0,0"/>
  <path class="st0" d="M722.7,160.2c-1.6-1.2-1.6-1.1-2.4.2.3,0,1.3.4,2.4-.2"/>
  <path class="st0" d="M703.5,161c.6.6,2.9.8,3.1-1-1.6-1.1-3.8.3-3.1,1"/>
  <path class="st0" d="M704.2,159.2c1.5-.8,1.1-.6,1.4-.8-.9-.7-2.2,0-1.4.8"/>
  <path class="st0" d="M761.8,193c1.1.2.3-1.5-.3-1.5-.6.6-.5,1.4.3,1.5"/>
  <path class="st0" d="M754.8,156.1c-.8-.2-1.1.6-1.5,1.2,1.1.1,3-.8,1.5-1.2"/>
</svg>